<svg xmlns="http://www.w3.org/2000/svg" width="47.842" height="48" viewBox="0 0 47.842 48">
  <g>
    <path d="M39.7.338c-1.135-.657-4.113-.909-7.131,4.652s.016,5.516-6.333,15.507l2.672,1.549c5.51-10.479,6.979-7.824,10.3-13.207S40.834,1,39.7.338Z" fill="#79ccb8"/>
    <path d="M36.739,20.309a18.115,18.115,0,0,0-25.636,0Z" fill="#f1bb6b"/>
    <path d="M2.242,24.8a21.679,21.679,0,0,0,43.358,0Z" fill="#79ccb8"/>
    <path d="M45.6,24.8H2.242A2.25,2.25,0,0,1,0,22.552H0A2.249,2.249,0,0,1,2.242,20.31H45.6a2.25,2.25,0,0,1,2.243,2.242h0A2.25,2.25,0,0,1,45.6,24.8Z" fill="#3daa9d"/>
    <rect x="12.708" y="43.515" width="22.426" height="4.485" fill="#3daa9d"/>
  </g>
</svg>
